<mxfile host="app.diagrams.net" agent="Mozilla/5.0 (Windows NT 10.0; Win64; x64) AppleWebKit/537.36 (KHTML, like Gecko) Chrome/138.0.0.0 Safari/537.36" version="27.2.0">
  <diagram id="R2lEEEUBdFMjLlhIrx00" name="Page-1">
    <mxGraphModel dx="1281" dy="1661" grid="1" gridSize="10" guides="1" tooltips="1" connect="1" arrows="1" fold="1" page="1" pageScale="1" pageWidth="850" pageHeight="1100" math="0" shadow="0" extFonts="Permanent Marker^https://fonts.googleapis.com/css?family=Permanent+Marker">
      <root>
        <mxCell id="0" />
        <mxCell id="1" parent="0" />
        <mxCell id="shVBCPUXtci6jnUbTt21-21" style="edgeStyle=none;shape=connector;rounded=0;orthogonalLoop=1;jettySize=auto;html=1;strokeColor=default;align=center;verticalAlign=middle;fontFamily=Helvetica;fontSize=11;fontColor=default;labelBackgroundColor=default;endArrow=none;" parent="1" source="QS1I4q830uSCWdmDyugS-1" target="shVBCPUXtci6jnUbTt21-20" edge="1">
          <mxGeometry relative="1" as="geometry" />
        </mxCell>
        <mxCell id="QS1I4q830uSCWdmDyugS-1" value="Categoria" style="whiteSpace=wrap;html=1;align=center;" parent="1" vertex="1">
          <mxGeometry x="722.5" y="-450" width="100" height="40" as="geometry" />
        </mxCell>
        <mxCell id="dO-OO0QhJHyzGZb2AIYF-4" style="rounded=0;orthogonalLoop=1;jettySize=auto;html=1;exitX=1;exitY=0.5;exitDx=0;exitDy=0;endArrow=none;startFill=0;" parent="1" source="QS1I4q830uSCWdmDyugS-3" target="dO-OO0QhJHyzGZb2AIYF-3" edge="1">
          <mxGeometry relative="1" as="geometry" />
        </mxCell>
        <mxCell id="QS1I4q830uSCWdmDyugS-3" value="Persona" style="whiteSpace=wrap;html=1;align=center;" parent="1" vertex="1">
          <mxGeometry x="720" y="835" width="100" height="40" as="geometry" />
        </mxCell>
        <mxCell id="QS1I4q830uSCWdmDyugS-4" value="nombre" style="ellipse;whiteSpace=wrap;html=1;align=center;" parent="1" vertex="1">
          <mxGeometry x="530" y="890" width="100" height="40" as="geometry" />
        </mxCell>
        <mxCell id="QS1I4q830uSCWdmDyugS-5" value="DNI" style="ellipse;whiteSpace=wrap;html=1;align=center;fontStyle=4;" parent="1" vertex="1">
          <mxGeometry x="500" y="835" width="100" height="40" as="geometry" />
        </mxCell>
        <mxCell id="QS1I4q830uSCWdmDyugS-6" value="" style="endArrow=none;html=1;rounded=0;" parent="1" source="QS1I4q830uSCWdmDyugS-3" target="QS1I4q830uSCWdmDyugS-5" edge="1">
          <mxGeometry relative="1" as="geometry">
            <mxPoint x="660" y="1065" as="sourcePoint" />
            <mxPoint x="820" y="1065" as="targetPoint" />
          </mxGeometry>
        </mxCell>
        <mxCell id="QS1I4q830uSCWdmDyugS-7" value="" style="endArrow=none;html=1;rounded=0;exitX=0;exitY=1;exitDx=0;exitDy=0;" parent="1" source="QS1I4q830uSCWdmDyugS-3" target="QS1I4q830uSCWdmDyugS-4" edge="1">
          <mxGeometry relative="1" as="geometry">
            <mxPoint x="770" y="965" as="sourcePoint" />
            <mxPoint x="930" y="965" as="targetPoint" />
          </mxGeometry>
        </mxCell>
        <mxCell id="QS1I4q830uSCWdmDyugS-8" value="primerNombre" style="ellipse;whiteSpace=wrap;html=1;align=center;" parent="1" vertex="1">
          <mxGeometry x="400" y="900" width="100" height="40" as="geometry" />
        </mxCell>
        <mxCell id="QS1I4q830uSCWdmDyugS-9" value="primerApellido" style="ellipse;whiteSpace=wrap;html=1;align=center;" parent="1" vertex="1">
          <mxGeometry x="510" y="990" width="100" height="40" as="geometry" />
        </mxCell>
        <mxCell id="QS1I4q830uSCWdmDyugS-10" value="segundoNombre" style="ellipse;whiteSpace=wrap;html=1;align=center;" parent="1" vertex="1">
          <mxGeometry x="440" y="950" width="100" height="40" as="geometry" />
        </mxCell>
        <mxCell id="QS1I4q830uSCWdmDyugS-11" value="segundoApellido" style="ellipse;whiteSpace=wrap;html=1;align=center;" parent="1" vertex="1">
          <mxGeometry x="600" y="940" width="100" height="40" as="geometry" />
        </mxCell>
        <mxCell id="QS1I4q830uSCWdmDyugS-13" value="" style="endArrow=none;html=1;rounded=0;" parent="1" source="QS1I4q830uSCWdmDyugS-4" target="QS1I4q830uSCWdmDyugS-10" edge="1">
          <mxGeometry relative="1" as="geometry">
            <mxPoint x="650" y="985" as="sourcePoint" />
            <mxPoint x="810" y="985" as="targetPoint" />
          </mxGeometry>
        </mxCell>
        <mxCell id="QS1I4q830uSCWdmDyugS-14" value="" style="endArrow=none;html=1;rounded=0;" parent="1" source="QS1I4q830uSCWdmDyugS-4" target="QS1I4q830uSCWdmDyugS-8" edge="1">
          <mxGeometry relative="1" as="geometry">
            <mxPoint x="660" y="995" as="sourcePoint" />
            <mxPoint x="820" y="995" as="targetPoint" />
          </mxGeometry>
        </mxCell>
        <mxCell id="QS1I4q830uSCWdmDyugS-15" value="" style="endArrow=none;html=1;rounded=0;" parent="1" source="QS1I4q830uSCWdmDyugS-4" target="QS1I4q830uSCWdmDyugS-9" edge="1">
          <mxGeometry relative="1" as="geometry">
            <mxPoint x="670" y="1005" as="sourcePoint" />
            <mxPoint x="830" y="1005" as="targetPoint" />
          </mxGeometry>
        </mxCell>
        <mxCell id="QS1I4q830uSCWdmDyugS-16" value="" style="endArrow=none;html=1;rounded=0;" parent="1" source="QS1I4q830uSCWdmDyugS-11" target="QS1I4q830uSCWdmDyugS-4" edge="1">
          <mxGeometry relative="1" as="geometry">
            <mxPoint x="680" y="1015" as="sourcePoint" />
            <mxPoint x="840" y="1015" as="targetPoint" />
          </mxGeometry>
        </mxCell>
        <mxCell id="QS1I4q830uSCWdmDyugS-17" value="telefono" style="ellipse;shape=doubleEllipse;margin=3;whiteSpace=wrap;html=1;align=center;" parent="1" vertex="1">
          <mxGeometry x="700" y="970" width="120" height="50" as="geometry" />
        </mxCell>
        <mxCell id="QS1I4q830uSCWdmDyugS-18" value="email" style="ellipse;shape=doubleEllipse;margin=3;whiteSpace=wrap;html=1;align=center;" parent="1" vertex="1">
          <mxGeometry x="830" y="930" width="100" height="40" as="geometry" />
        </mxCell>
        <mxCell id="QS1I4q830uSCWdmDyugS-19" value="" style="endArrow=none;html=1;rounded=0;" parent="1" source="QS1I4q830uSCWdmDyugS-3" target="QS1I4q830uSCWdmDyugS-17" edge="1">
          <mxGeometry relative="1" as="geometry">
            <mxPoint x="830" y="745" as="sourcePoint" />
            <mxPoint x="990" y="745" as="targetPoint" />
          </mxGeometry>
        </mxCell>
        <mxCell id="QS1I4q830uSCWdmDyugS-20" value="" style="endArrow=none;html=1;rounded=0;" parent="1" source="QS1I4q830uSCWdmDyugS-3" target="QS1I4q830uSCWdmDyugS-18" edge="1">
          <mxGeometry relative="1" as="geometry">
            <mxPoint x="790" y="878" as="sourcePoint" />
            <mxPoint x="869" y="897" as="targetPoint" />
          </mxGeometry>
        </mxCell>
        <mxCell id="QS1I4q830uSCWdmDyugS-21" value="Empleado" style="whiteSpace=wrap;html=1;align=center;" parent="1" vertex="1">
          <mxGeometry x="100" y="705" width="100" height="40" as="geometry" />
        </mxCell>
        <mxCell id="QS1I4q830uSCWdmDyugS-40" value="" style="triangle;whiteSpace=wrap;html=1;rotation=-90;" parent="1" vertex="1">
          <mxGeometry x="740" y="685" width="60" height="80" as="geometry" />
        </mxCell>
        <mxCell id="QS1I4q830uSCWdmDyugS-41" value="" style="shape=link;html=1;rounded=0;" parent="1" source="QS1I4q830uSCWdmDyugS-40" target="QS1I4q830uSCWdmDyugS-3" edge="1">
          <mxGeometry relative="1" as="geometry">
            <mxPoint x="500" y="815" as="sourcePoint" />
            <mxPoint x="660" y="815" as="targetPoint" />
          </mxGeometry>
        </mxCell>
        <mxCell id="QS1I4q830uSCWdmDyugS-43" value="" style="endArrow=none;html=1;rounded=0;" parent="1" source="QS1I4q830uSCWdmDyugS-21" target="QS1I4q830uSCWdmDyugS-40" edge="1">
          <mxGeometry relative="1" as="geometry">
            <mxPoint x="730" y="405" as="sourcePoint" />
            <mxPoint x="890" y="405" as="targetPoint" />
          </mxGeometry>
        </mxCell>
        <mxCell id="QS1I4q830uSCWdmDyugS-44" value="" style="endArrow=none;html=1;rounded=0;" parent="1" source="G4VD6scRQYRvnBUST8PF-32" target="QS1I4q830uSCWdmDyugS-40" edge="1">
          <mxGeometry relative="1" as="geometry">
            <mxPoint x="730" y="545" as="sourcePoint" />
            <mxPoint x="424" y="663" as="targetPoint" />
          </mxGeometry>
        </mxCell>
        <mxCell id="QS1I4q830uSCWdmDyugS-45" value="Posee" style="shape=rhombus;perimeter=rhombusPerimeter;whiteSpace=wrap;html=1;align=center;" parent="1" vertex="1">
          <mxGeometry x="712.5" y="-310" width="120" height="60" as="geometry" />
        </mxCell>
        <mxCell id="QS1I4q830uSCWdmDyugS-47" value="" style="endArrow=none;html=1;rounded=0;startArrow=none;startFill=0;entryX=0.5;entryY=1;entryDx=0;entryDy=0;" parent="1" source="QS1I4q830uSCWdmDyugS-45" target="fhtL9vKuBu3bavkkqOvB-79" edge="1">
          <mxGeometry relative="1" as="geometry">
            <mxPoint x="320" y="210" as="sourcePoint" />
            <mxPoint x="750" y="-220" as="targetPoint" />
          </mxGeometry>
        </mxCell>
        <mxCell id="QS1I4q830uSCWdmDyugS-48" value="" style="endArrow=none;html=1;rounded=0;startArrow=classic;startFill=1;" parent="1" source="QS1I4q830uSCWdmDyugS-1" target="QS1I4q830uSCWdmDyugS-45" edge="1">
          <mxGeometry relative="1" as="geometry">
            <mxPoint x="430" y="20" as="sourcePoint" />
            <mxPoint x="430" y="90" as="targetPoint" />
          </mxGeometry>
        </mxCell>
        <mxCell id="QS1I4q830uSCWdmDyugS-49" value="nombreCategoria" style="ellipse;whiteSpace=wrap;html=1;align=center;" parent="1" vertex="1">
          <mxGeometry x="710" y="-550" width="100" height="40" as="geometry" />
        </mxCell>
        <mxCell id="QS1I4q830uSCWdmDyugS-50" value="IDCategoria" style="ellipse;whiteSpace=wrap;html=1;align=center;fontStyle=4;" parent="1" vertex="1">
          <mxGeometry x="590" y="-510" width="100" height="40" as="geometry" />
        </mxCell>
        <mxCell id="QS1I4q830uSCWdmDyugS-52" value="" style="endArrow=none;html=1;rounded=0;" parent="1" source="QS1I4q830uSCWdmDyugS-50" target="QS1I4q830uSCWdmDyugS-1" edge="1">
          <mxGeometry relative="1" as="geometry">
            <mxPoint x="190" y="-140" as="sourcePoint" />
            <mxPoint x="350" y="-140" as="targetPoint" />
          </mxGeometry>
        </mxCell>
        <mxCell id="QS1I4q830uSCWdmDyugS-53" value="" style="endArrow=none;html=1;rounded=0;" parent="1" source="QS1I4q830uSCWdmDyugS-49" target="QS1I4q830uSCWdmDyugS-1" edge="1">
          <mxGeometry relative="1" as="geometry">
            <mxPoint x="347" y="-183" as="sourcePoint" />
            <mxPoint x="418" y="-140" as="targetPoint" />
          </mxGeometry>
        </mxCell>
        <mxCell id="QS1I4q830uSCWdmDyugS-63" value="" style="endArrow=none;html=1;rounded=0;" parent="1" source="QS1I4q830uSCWdmDyugS-1" target="shVBCPUXtci6jnUbTt21-4" edge="1">
          <mxGeometry relative="1" as="geometry">
            <mxPoint x="510" y="50" as="sourcePoint" />
            <mxPoint x="542.7505824702419" y="-193.23112767399493" as="targetPoint" />
          </mxGeometry>
        </mxCell>
        <mxCell id="QS1I4q830uSCWdmDyugS-64" value="Cargo" style="ellipse;whiteSpace=wrap;html=1;align=center;" parent="1" vertex="1">
          <mxGeometry x="100" y="795" width="100" height="40" as="geometry" />
        </mxCell>
        <mxCell id="QS1I4q830uSCWdmDyugS-65" value="" style="endArrow=none;html=1;rounded=0;" parent="1" source="QS1I4q830uSCWdmDyugS-64" target="QS1I4q830uSCWdmDyugS-21" edge="1">
          <mxGeometry relative="1" as="geometry">
            <mxPoint x="-20" y="775" as="sourcePoint" />
            <mxPoint x="140" y="775" as="targetPoint" />
          </mxGeometry>
        </mxCell>
        <mxCell id="QS1I4q830uSCWdmDyugS-71" value="" style="endArrow=none;html=1;rounded=0;exitX=0.5;exitY=1;exitDx=0;exitDy=0;" parent="1" source="dO-OO0QhJHyzGZb2AIYF-10" target="QS1I4q830uSCWdmDyugS-21" edge="1">
          <mxGeometry relative="1" as="geometry">
            <mxPoint x="55.584262124187944" y="662.1834596356489" as="sourcePoint" />
            <mxPoint x="80" y="655" as="targetPoint" />
          </mxGeometry>
        </mxCell>
        <mxCell id="QS1I4q830uSCWdmDyugS-72" value="Servicio" style="whiteSpace=wrap;html=1;align=center;" parent="1" vertex="1">
          <mxGeometry x="1845" y="270" width="100" height="40" as="geometry" />
        </mxCell>
        <mxCell id="QS1I4q830uSCWdmDyugS-73" value="idServicio" style="ellipse;whiteSpace=wrap;html=1;align=center;fontStyle=4;" parent="1" vertex="1">
          <mxGeometry x="1725" y="350" width="100" height="40" as="geometry" />
        </mxCell>
        <mxCell id="QS1I4q830uSCWdmDyugS-74" value="" style="endArrow=none;html=1;rounded=0;" parent="1" source="QS1I4q830uSCWdmDyugS-73" target="QS1I4q830uSCWdmDyugS-72" edge="1">
          <mxGeometry relative="1" as="geometry">
            <mxPoint x="1525" y="690" as="sourcePoint" />
            <mxPoint x="1685" y="690" as="targetPoint" />
          </mxGeometry>
        </mxCell>
        <mxCell id="QS1I4q830uSCWdmDyugS-75" value="nombreServicio" style="ellipse;whiteSpace=wrap;html=1;align=center;" parent="1" vertex="1">
          <mxGeometry x="1805" y="390" width="100" height="40" as="geometry" />
        </mxCell>
        <mxCell id="QS1I4q830uSCWdmDyugS-76" value="" style="endArrow=none;html=1;rounded=0;" parent="1" source="QS1I4q830uSCWdmDyugS-75" target="QS1I4q830uSCWdmDyugS-72" edge="1">
          <mxGeometry relative="1" as="geometry">
            <mxPoint x="1515" y="660" as="sourcePoint" />
            <mxPoint x="1675" y="660" as="targetPoint" />
          </mxGeometry>
        </mxCell>
        <mxCell id="QS1I4q830uSCWdmDyugS-77" value="precioServicio" style="ellipse;whiteSpace=wrap;html=1;align=center;" parent="1" vertex="1">
          <mxGeometry x="2025" y="350" width="100" height="40" as="geometry" />
        </mxCell>
        <mxCell id="QS1I4q830uSCWdmDyugS-78" value="" style="endArrow=none;html=1;rounded=0;" parent="1" source="QS1I4q830uSCWdmDyugS-72" target="QS1I4q830uSCWdmDyugS-77" edge="1">
          <mxGeometry relative="1" as="geometry">
            <mxPoint x="1725" y="560" as="sourcePoint" />
            <mxPoint x="1885" y="560" as="targetPoint" />
          </mxGeometry>
        </mxCell>
        <mxCell id="QS1I4q830uSCWdmDyugS-79" value="detalleServicio" style="ellipse;whiteSpace=wrap;html=1;align=center;" parent="1" vertex="1">
          <mxGeometry x="1925" y="390" width="100" height="40" as="geometry" />
        </mxCell>
        <mxCell id="QS1I4q830uSCWdmDyugS-80" value="" style="endArrow=none;html=1;rounded=0;" parent="1" source="QS1I4q830uSCWdmDyugS-72" target="QS1I4q830uSCWdmDyugS-79" edge="1">
          <mxGeometry relative="1" as="geometry">
            <mxPoint x="1665" y="580" as="sourcePoint" />
            <mxPoint x="1825" y="580" as="targetPoint" />
          </mxGeometry>
        </mxCell>
        <mxCell id="QS1I4q830uSCWdmDyugS-81" value="consume" style="shape=rhombus;perimeter=rhombusPerimeter;whiteSpace=wrap;html=1;align=center;" parent="1" vertex="1">
          <mxGeometry x="1440" y="265" width="120" height="60" as="geometry" />
        </mxCell>
        <mxCell id="QS1I4q830uSCWdmDyugS-83" value="" style="endArrow=none;html=1;rounded=0;endFill=1;startFill=0;exitX=1.001;exitY=0.582;exitDx=0;exitDy=0;exitPerimeter=0;" parent="1" source="G4VD6scRQYRvnBUST8PF-38" target="QS1I4q830uSCWdmDyugS-81" edge="1">
          <mxGeometry relative="1" as="geometry">
            <mxPoint x="1030" y="295" as="sourcePoint" />
            <mxPoint x="990" y="500" as="targetPoint" />
          </mxGeometry>
        </mxCell>
        <mxCell id="QS1I4q830uSCWdmDyugS-85" value="" style="resizable=0;html=1;whiteSpace=wrap;align=right;verticalAlign=bottom;" parent="QS1I4q830uSCWdmDyugS-83" connectable="0" vertex="1">
          <mxGeometry x="1" relative="1" as="geometry" />
        </mxCell>
        <mxCell id="QS1I4q830uSCWdmDyugS-86" value="" style="endArrow=none;html=1;rounded=0;" parent="1" source="QS1I4q830uSCWdmDyugS-81" target="QS1I4q830uSCWdmDyugS-72" edge="1">
          <mxGeometry relative="1" as="geometry">
            <mxPoint x="1305" y="690" as="sourcePoint" />
            <mxPoint x="1415" y="690" as="targetPoint" />
          </mxGeometry>
        </mxCell>
        <mxCell id="QS1I4q830uSCWdmDyugS-91" value="" style="endArrow=none;html=1;rounded=0;" parent="1" source="QS1I4q830uSCWdmDyugS-89" target="QS1I4q830uSCWdmDyugS-81" edge="1">
          <mxGeometry relative="1" as="geometry">
            <mxPoint x="1351.0449040810913" y="633.1421586905958" as="sourcePoint" />
            <mxPoint x="1520" y="745" as="targetPoint" />
          </mxGeometry>
        </mxCell>
        <mxCell id="dO-OO0QhJHyzGZb2AIYF-2" value="es" style="text;html=1;align=center;verticalAlign=middle;whiteSpace=wrap;rounded=0;" parent="1" vertex="1">
          <mxGeometry x="740" y="720" width="60" height="30" as="geometry" />
        </mxCell>
        <mxCell id="shVBCPUXtci6jnUbTt21-12" style="edgeStyle=none;shape=connector;rounded=0;orthogonalLoop=1;jettySize=auto;html=1;strokeColor=default;align=center;verticalAlign=middle;fontFamily=Helvetica;fontSize=11;fontColor=default;labelBackgroundColor=default;endArrow=none;" parent="1" source="dO-OO0QhJHyzGZb2AIYF-3" target="shVBCPUXtci6jnUbTt21-9" edge="1">
          <mxGeometry relative="1" as="geometry" />
        </mxCell>
        <mxCell id="shVBCPUXtci6jnUbTt21-13" style="edgeStyle=none;shape=connector;rounded=0;orthogonalLoop=1;jettySize=auto;html=1;strokeColor=default;align=center;verticalAlign=middle;fontFamily=Helvetica;fontSize=11;fontColor=default;labelBackgroundColor=default;endArrow=none;" parent="1" source="dO-OO0QhJHyzGZb2AIYF-3" target="shVBCPUXtci6jnUbTt21-10" edge="1">
          <mxGeometry relative="1" as="geometry" />
        </mxCell>
        <mxCell id="shVBCPUXtci6jnUbTt21-14" style="edgeStyle=none;shape=connector;rounded=0;orthogonalLoop=1;jettySize=auto;html=1;strokeColor=default;align=center;verticalAlign=middle;fontFamily=Helvetica;fontSize=11;fontColor=default;labelBackgroundColor=default;endArrow=none;" parent="1" source="dO-OO0QhJHyzGZb2AIYF-3" target="shVBCPUXtci6jnUbTt21-11" edge="1">
          <mxGeometry relative="1" as="geometry" />
        </mxCell>
        <mxCell id="dO-OO0QhJHyzGZb2AIYF-3" value="direccion" style="ellipse;whiteSpace=wrap;html=1;align=center;" parent="1" vertex="1">
          <mxGeometry x="860" y="835" width="100" height="40" as="geometry" />
        </mxCell>
        <mxCell id="dO-OO0QhJHyzGZb2AIYF-12" style="edgeStyle=orthogonalEdgeStyle;rounded=0;orthogonalLoop=1;jettySize=auto;html=1;exitX=0.5;exitY=0;exitDx=0;exitDy=0;entryX=0.5;entryY=1;entryDx=0;entryDy=0;endArrow=classic;startFill=0;endFill=1;" parent="1" source="dO-OO0QhJHyzGZb2AIYF-10" target="dO-OO0QhJHyzGZb2AIYF-11" edge="1">
          <mxGeometry relative="1" as="geometry" />
        </mxCell>
        <mxCell id="dO-OO0QhJHyzGZb2AIYF-10" value="Trabaja" style="shape=rhombus;perimeter=rhombusPerimeter;whiteSpace=wrap;html=1;align=center;" parent="1" vertex="1">
          <mxGeometry x="90" y="585" width="120" height="60" as="geometry" />
        </mxCell>
        <mxCell id="dO-OO0QhJHyzGZb2AIYF-14" style="rounded=0;orthogonalLoop=1;jettySize=auto;html=1;endArrow=none;startFill=0;" parent="1" source="dO-OO0QhJHyzGZb2AIYF-11" target="dO-OO0QhJHyzGZb2AIYF-13" edge="1">
          <mxGeometry relative="1" as="geometry" />
        </mxCell>
        <mxCell id="dO-OO0QhJHyzGZb2AIYF-16" style="rounded=0;orthogonalLoop=1;jettySize=auto;html=1;endArrow=none;startFill=0;" parent="1" source="dO-OO0QhJHyzGZb2AIYF-11" target="dO-OO0QhJHyzGZb2AIYF-15" edge="1">
          <mxGeometry relative="1" as="geometry" />
        </mxCell>
        <mxCell id="dO-OO0QhJHyzGZb2AIYF-11" value="Area" style="whiteSpace=wrap;html=1;align=center;" parent="1" vertex="1">
          <mxGeometry x="100" y="495" width="100" height="40" as="geometry" />
        </mxCell>
        <mxCell id="dO-OO0QhJHyzGZb2AIYF-13" value="IdArea" style="ellipse;whiteSpace=wrap;html=1;align=center;fontStyle=4;" parent="1" vertex="1">
          <mxGeometry x="20" y="425" width="100" height="40" as="geometry" />
        </mxCell>
        <mxCell id="dO-OO0QhJHyzGZb2AIYF-15" value="nombreArea" style="ellipse;whiteSpace=wrap;html=1;align=center;" parent="1" vertex="1">
          <mxGeometry x="100" y="380" width="100" height="40" as="geometry" />
        </mxCell>
        <mxCell id="shVBCPUXtci6jnUbTt21-4" value="descripcionCategoria" style="ellipse;whiteSpace=wrap;html=1;align=center;" parent="1" vertex="1">
          <mxGeometry x="820" y="-540" width="120" height="50" as="geometry" />
        </mxCell>
        <mxCell id="shVBCPUXtci6jnUbTt21-9" value="calle" style="ellipse;whiteSpace=wrap;html=1;align=center;" parent="1" vertex="1">
          <mxGeometry x="940" y="740" width="100" height="40" as="geometry" />
        </mxCell>
        <mxCell id="shVBCPUXtci6jnUbTt21-10" value="carrera" style="ellipse;whiteSpace=wrap;html=1;align=center;" parent="1" vertex="1">
          <mxGeometry x="1020" y="795" width="100" height="40" as="geometry" />
        </mxCell>
        <mxCell id="shVBCPUXtci6jnUbTt21-11" value="numero" style="ellipse;whiteSpace=wrap;html=1;align=center;" parent="1" vertex="1">
          <mxGeometry x="990" y="900" width="100" height="40" as="geometry" />
        </mxCell>
        <mxCell id="shVBCPUXtci6jnUbTt21-20" value="precioCategoria" style="ellipse;whiteSpace=wrap;html=1;align=center;" parent="1" vertex="1">
          <mxGeometry x="880" y="-480" width="100" height="40" as="geometry" />
        </mxCell>
        <mxCell id="hM8OIDVvDlEyUMFHQCPn-17" value="1..1" style="text;html=1;align=center;verticalAlign=middle;resizable=0;points=[];autosize=1;strokeColor=none;fillColor=none;" parent="1" vertex="1">
          <mxGeometry x="772.5" y="-330" width="40" height="30" as="geometry" />
        </mxCell>
        <mxCell id="hM8OIDVvDlEyUMFHQCPn-20" value="1..1" style="text;html=1;align=center;verticalAlign=middle;resizable=0;points=[];autosize=1;strokeColor=none;fillColor=none;" parent="1" vertex="1">
          <mxGeometry x="155" y="565" width="40" height="30" as="geometry" />
        </mxCell>
        <mxCell id="hM8OIDVvDlEyUMFHQCPn-21" value="1..n" style="text;html=1;align=center;verticalAlign=middle;resizable=0;points=[];autosize=1;strokeColor=none;fillColor=none;" parent="1" vertex="1">
          <mxGeometry x="155" y="650" width="40" height="30" as="geometry" />
        </mxCell>
        <mxCell id="hM8OIDVvDlEyUMFHQCPn-22" value="1..n" style="text;html=1;align=center;verticalAlign=middle;resizable=0;points=[];autosize=1;strokeColor=none;fillColor=none;" parent="1" vertex="1">
          <mxGeometry x="1400" y="265" width="40" height="30" as="geometry" />
        </mxCell>
        <mxCell id="hM8OIDVvDlEyUMFHQCPn-23" value="0..m" style="text;html=1;align=center;verticalAlign=middle;resizable=0;points=[];autosize=1;strokeColor=none;fillColor=none;" parent="1" vertex="1">
          <mxGeometry x="1560" y="265" width="50" height="30" as="geometry" />
        </mxCell>
        <mxCell id="fhtL9vKuBu3bavkkqOvB-17" value="" style="endArrow=none;html=1;rounded=0;edgeStyle=orthogonalEdgeStyle;curved=1;" parent="1" edge="1">
          <mxGeometry width="50" height="50" relative="1" as="geometry">
            <mxPoint x="790" y="670" as="sourcePoint" />
            <mxPoint x="710" y="745" as="targetPoint" />
          </mxGeometry>
        </mxCell>
        <mxCell id="fhtL9vKuBu3bavkkqOvB-68" value="1..n" style="text;html=1;align=center;verticalAlign=middle;resizable=0;points=[];autosize=1;strokeColor=none;fillColor=none;" parent="1" vertex="1">
          <mxGeometry x="772.5" y="-240" width="40" height="30" as="geometry" />
        </mxCell>
        <mxCell id="G4VD6scRQYRvnBUST8PF-1" value="&lt;div&gt;Integrantes:&lt;/div&gt;Lina Sofia Moreno Guatavita - 20231020133&lt;div&gt;Jan Henrik Sanchez Jerez - 20231020130&lt;/div&gt;&lt;div&gt;Sergo Nicolas Mendivelso Martinez - 20231020227&lt;/div&gt;&lt;div&gt;Steven Niño Rivera - 20231020209&lt;/div&gt;" style="text;html=1;align=center;verticalAlign=middle;whiteSpace=wrap;rounded=0;fillColor=#f5f5f5;fontColor=#333333;strokeColor=#666666;fontSize=15;" parent="1" vertex="1">
          <mxGeometry x="1340" y="-340" width="420" height="120" as="geometry" />
        </mxCell>
        <mxCell id="G4VD6scRQYRvnBUST8PF-38" value="" style="swimlane;startSize=0;fontFamily=Helvetica;fontSize=11;fontColor=default;labelBackgroundColor=default;fillColor=none;" parent="1" vertex="1">
          <mxGeometry x="510" y="-160" width="610" height="780" as="geometry" />
        </mxCell>
        <mxCell id="G4VD6scRQYRvnBUST8PF-32" value="Cliente" style="whiteSpace=wrap;html=1;align=center;" parent="G4VD6scRQYRvnBUST8PF-38" vertex="1">
          <mxGeometry x="212.5" y="705" width="100" height="40" as="geometry" />
        </mxCell>
        <mxCell id="G4VD6scRQYRvnBUST8PF-36" value="VIP, frecuente, nuevo" style="shape=note;whiteSpace=wrap;html=1;backgroundOutline=1;darkOpacity=0.05;fontFamily=Helvetica;fontSize=11;fontColor=default;labelBackgroundColor=default;size=16;" parent="G4VD6scRQYRvnBUST8PF-38" vertex="1">
          <mxGeometry x="67.5" y="670" width="70" height="70" as="geometry" />
        </mxCell>
        <mxCell id="hM8OIDVvDlEyUMFHQCPn-28" value="1..m" style="text;html=1;align=center;verticalAlign=middle;resizable=0;points=[];autosize=1;strokeColor=none;fillColor=none;" parent="G4VD6scRQYRvnBUST8PF-38" vertex="1">
          <mxGeometry x="265" y="436.44" width="50" height="30" as="geometry" />
        </mxCell>
        <mxCell id="G4VD6scRQYRvnBUST8PF-7" value="" style="endArrow=none;html=1;rounded=0;" parent="G4VD6scRQYRvnBUST8PF-38" source="G4VD6scRQYRvnBUST8PF-30" target="G4VD6scRQYRvnBUST8PF-13" edge="1">
          <mxGeometry relative="1" as="geometry">
            <mxPoint x="220" y="414.9031362402675" as="sourcePoint" />
            <mxPoint x="164.8469753376553" y="447.8369344404625" as="targetPoint" />
          </mxGeometry>
        </mxCell>
        <mxCell id="G4VD6scRQYRvnBUST8PF-8" value="" style="endArrow=none;html=1;rounded=0;entryX=1;entryY=0;entryDx=0;entryDy=0;" parent="G4VD6scRQYRvnBUST8PF-38" source="G4VD6scRQYRvnBUST8PF-30" target="G4VD6scRQYRvnBUST8PF-18" edge="1">
          <mxGeometry relative="1" as="geometry">
            <mxPoint x="220" y="446.6800000000003" as="sourcePoint" />
            <mxPoint x="300" y="596.6800000000001" as="targetPoint" />
          </mxGeometry>
        </mxCell>
        <mxCell id="G4VD6scRQYRvnBUST8PF-9" value="" style="endArrow=none;html=1;rounded=0;" parent="G4VD6scRQYRvnBUST8PF-38" source="G4VD6scRQYRvnBUST8PF-30" target="G4VD6scRQYRvnBUST8PF-14" edge="1">
          <mxGeometry relative="1" as="geometry">
            <mxPoint x="220" y="406.6800000000003" as="sourcePoint" />
            <mxPoint x="147.73500981125426" y="363.3210058867528" as="targetPoint" />
          </mxGeometry>
        </mxCell>
        <mxCell id="G4VD6scRQYRvnBUST8PF-11" value="" style="endArrow=none;html=1;rounded=0;" parent="G4VD6scRQYRvnBUST8PF-38" source="G4VD6scRQYRvnBUST8PF-30" target="G4VD6scRQYRvnBUST8PF-16" edge="1">
          <mxGeometry relative="1" as="geometry">
            <mxPoint x="320" y="414.90041479043657" as="sourcePoint" />
            <mxPoint x="441.0422587367998" y="433.55760466376546" as="targetPoint" />
          </mxGeometry>
        </mxCell>
        <mxCell id="G4VD6scRQYRvnBUST8PF-12" value="Se calcula a partir de fechaLlegada" style="shape=note;size=20;whiteSpace=wrap;html=1;" parent="G4VD6scRQYRvnBUST8PF-38" vertex="1">
          <mxGeometry x="370" y="310" width="170" height="40" as="geometry" />
        </mxCell>
        <mxCell id="G4VD6scRQYRvnBUST8PF-13" value="fechaLlegada" style="ellipse;whiteSpace=wrap;html=1;align=center;fontStyle=4" parent="G4VD6scRQYRvnBUST8PF-38" vertex="1">
          <mxGeometry x="90" y="376.44000000000005" width="100" height="40" as="geometry" />
        </mxCell>
        <mxCell id="G4VD6scRQYRvnBUST8PF-14" value="precioReserva" style="ellipse;whiteSpace=wrap;html=1;align=center;dashed=1;" parent="G4VD6scRQYRvnBUST8PF-38" vertex="1">
          <mxGeometry x="90" y="323.31999999999994" width="100" height="40" as="geometry" />
        </mxCell>
        <mxCell id="G4VD6scRQYRvnBUST8PF-16" value="tiempoMaximoCancelacion" style="ellipse;whiteSpace=wrap;html=1;align=center;dashed=1;" parent="G4VD6scRQYRvnBUST8PF-38" vertex="1">
          <mxGeometry x="370" y="363.31999999999994" width="170" height="40" as="geometry" />
        </mxCell>
        <mxCell id="G4VD6scRQYRvnBUST8PF-18" value="fechaSalida" style="ellipse;whiteSpace=wrap;html=1;align=center;" parent="G4VD6scRQYRvnBUST8PF-38" vertex="1">
          <mxGeometry x="100" y="446.68000000000006" width="100" height="40" as="geometry" />
        </mxCell>
        <mxCell id="G4VD6scRQYRvnBUST8PF-30" value="Reserva" style="shape=rhombus;perimeter=rhombusPerimeter;whiteSpace=wrap;html=1;align=center;" parent="G4VD6scRQYRvnBUST8PF-38" vertex="1">
          <mxGeometry x="205" y="376.44" width="120" height="60" as="geometry" />
        </mxCell>
        <mxCell id="G4VD6scRQYRvnBUST8PF-35" style="rounded=0;orthogonalLoop=1;jettySize=auto;html=1;endArrow=none;startFill=0;endFill=1;" parent="G4VD6scRQYRvnBUST8PF-38" source="G4VD6scRQYRvnBUST8PF-30" target="G4VD6scRQYRvnBUST8PF-32" edge="1">
          <mxGeometry relative="1" as="geometry">
            <mxPoint x="245" y="290" as="sourcePoint" />
          </mxGeometry>
        </mxCell>
        <mxCell id="fhtL9vKuBu3bavkkqOvB-79" value="&lt;span style=&quot;background-color: initial;&quot;&gt;Habitacion&lt;/span&gt;" style="whiteSpace=wrap;html=1;align=center;" parent="G4VD6scRQYRvnBUST8PF-38" vertex="1">
          <mxGeometry x="212.5" y="120" width="100" height="40" as="geometry" />
        </mxCell>
        <mxCell id="G4VD6scRQYRvnBUST8PF-37" style="edgeStyle=none;shape=connector;rounded=0;orthogonalLoop=1;jettySize=auto;html=1;strokeColor=default;align=center;verticalAlign=middle;fontFamily=Helvetica;fontSize=11;fontColor=default;labelBackgroundColor=default;startFill=0;endArrow=none;" parent="G4VD6scRQYRvnBUST8PF-38" source="G4VD6scRQYRvnBUST8PF-30" target="fhtL9vKuBu3bavkkqOvB-79" edge="1">
          <mxGeometry relative="1" as="geometry" />
        </mxCell>
        <mxCell id="fhtL9vKuBu3bavkkqOvB-83" value="estadoActual" style="ellipse;whiteSpace=wrap;html=1;align=center;dashed=1;" parent="G4VD6scRQYRvnBUST8PF-38" vertex="1">
          <mxGeometry x="410" y="140" width="100" height="40" as="geometry" />
        </mxCell>
        <mxCell id="fhtL9vKuBu3bavkkqOvB-81" value="" style="endArrow=none;html=1;rounded=0;" parent="G4VD6scRQYRvnBUST8PF-38" source="fhtL9vKuBu3bavkkqOvB-83" target="fhtL9vKuBu3bavkkqOvB-79" edge="1">
          <mxGeometry relative="1" as="geometry">
            <mxPoint x="-270" y="310" as="sourcePoint" />
            <mxPoint x="-110" y="310" as="targetPoint" />
          </mxGeometry>
        </mxCell>
        <mxCell id="fhtL9vKuBu3bavkkqOvB-82" value="IDHabitacion" style="ellipse;whiteSpace=wrap;html=1;align=center;fontStyle=4;" parent="G4VD6scRQYRvnBUST8PF-38" vertex="1">
          <mxGeometry x="405" y="50" width="100" height="40" as="geometry" />
        </mxCell>
        <mxCell id="fhtL9vKuBu3bavkkqOvB-80" value="" style="endArrow=none;html=1;rounded=0;" parent="G4VD6scRQYRvnBUST8PF-38" source="fhtL9vKuBu3bavkkqOvB-82" target="fhtL9vKuBu3bavkkqOvB-79" edge="1">
          <mxGeometry relative="1" as="geometry">
            <mxPoint x="-360" y="290" as="sourcePoint" />
            <mxPoint x="-200" y="290" as="targetPoint" />
          </mxGeometry>
        </mxCell>
        <mxCell id="G4VD6scRQYRvnBUST8PF-42" value="1..n" style="text;html=1;align=center;verticalAlign=middle;resizable=0;points=[];autosize=1;strokeColor=none;fillColor=none;" parent="G4VD6scRQYRvnBUST8PF-38" vertex="1">
          <mxGeometry x="270" y="333.32" width="40" height="30" as="geometry" />
        </mxCell>
        <mxCell id="shVBCPUXtci6jnUbTt21-18" value="Cuando un cliente reserva una habitación, puede consumir un servicio" style="shape=note;whiteSpace=wrap;html=1;backgroundOutline=1;darkOpacity=0.05;fontFamily=Helvetica;fontSize=11;fontColor=default;labelBackgroundColor=default;size=16;" parent="1" vertex="1">
          <mxGeometry x="1170" y="330" width="110" height="70" as="geometry" />
        </mxCell>
        <mxCell id="lwkXBF0urChAFcM_Qn3S-1" value="" style="swimlane;startSize=0;" parent="1" vertex="1">
          <mxGeometry x="480" y="-180" width="1690" height="820" as="geometry" />
        </mxCell>
        <mxCell id="QS1I4q830uSCWdmDyugS-89" value="fechaUso" style="ellipse;whiteSpace=wrap;html=1;align=center;fontStyle=4" parent="lwkXBF0urChAFcM_Qn3S-1" vertex="1">
          <mxGeometry x="970" y="550" width="100" height="40" as="geometry" />
        </mxCell>
        <mxCell id="G4VD6scRQYRvnBUST8PF-19" value="consumoTotal" style="ellipse;whiteSpace=wrap;html=1;align=center;dashed=1;" parent="lwkXBF0urChAFcM_Qn3S-1" vertex="1">
          <mxGeometry x="400" y="443.56" width="100" height="46.44" as="geometry" />
        </mxCell>
        <mxCell id="G4VD6scRQYRvnBUST8PF-21" value="Se calcula a partir de la cantidad de servicios" style="shape=note;size=20;whiteSpace=wrap;html=1;" parent="lwkXBF0urChAFcM_Qn3S-1" vertex="1">
          <mxGeometry x="460" y="530" width="170" height="40" as="geometry" />
        </mxCell>
        <mxCell id="I6LmXVEZjTcFnqHunB0a-1" value="tipoCliente" style="ellipse;whiteSpace=wrap;html=1;align=center;dashed=1;" parent="lwkXBF0urChAFcM_Qn3S-1" vertex="1">
          <mxGeometry x="410" y="725" width="100" height="40" as="geometry" />
        </mxCell>
        <mxCell id="I6LmXVEZjTcFnqHunB0a-3" value="precioNoche" style="ellipse;whiteSpace=wrap;html=1;align=center;dashed=1;" parent="lwkXBF0urChAFcM_Qn3S-1" vertex="1">
          <mxGeometry x="90" y="140" width="100" height="40" as="geometry" />
        </mxCell>
        <mxCell id="I6LmXVEZjTcFnqHunB0a-5" value="numeroNoches" style="ellipse;whiteSpace=wrap;html=1;align=center;dashed=1;" parent="lwkXBF0urChAFcM_Qn3S-1" vertex="1">
          <mxGeometry x="310" y="490" width="100" height="40" as="geometry" />
        </mxCell>
        <mxCell id="lwkXBF0urChAFcM_Qn3S-2" value="Atiende" style="shape=rhombus;perimeter=rhombusPerimeter;whiteSpace=wrap;html=1;align=center;" parent="1" vertex="1">
          <mxGeometry x="270" y="560" width="120" height="60" as="geometry" />
        </mxCell>
        <mxCell id="lwkXBF0urChAFcM_Qn3S-5" value="" style="endArrow=none;html=1;rounded=0;" parent="1" source="lwkXBF0urChAFcM_Qn3S-2" target="QS1I4q830uSCWdmDyugS-21" edge="1">
          <mxGeometry relative="1" as="geometry">
            <mxPoint x="300" y="540" as="sourcePoint" />
            <mxPoint x="460" y="540" as="targetPoint" />
          </mxGeometry>
        </mxCell>
        <mxCell id="lwkXBF0urChAFcM_Qn3S-6" value="" style="endArrow=none;html=1;rounded=0;" parent="1" source="lwkXBF0urChAFcM_Qn3S-1" target="lwkXBF0urChAFcM_Qn3S-2" edge="1">
          <mxGeometry relative="1" as="geometry">
            <mxPoint x="340" y="540" as="sourcePoint" />
            <mxPoint x="340" y="805" as="targetPoint" />
          </mxGeometry>
        </mxCell>
        <mxCell id="lwkXBF0urChAFcM_Qn3S-9" value="1..n" style="text;html=1;align=center;verticalAlign=middle;whiteSpace=wrap;rounded=0;" parent="1" vertex="1">
          <mxGeometry x="280" y="625" width="60" height="30" as="geometry" />
        </mxCell>
        <mxCell id="lwkXBF0urChAFcM_Qn3S-10" value="1..m" style="text;html=1;align=center;verticalAlign=middle;whiteSpace=wrap;rounded=0;" parent="1" vertex="1">
          <mxGeometry x="350" y="545" width="60" height="30" as="geometry" />
        </mxCell>
        <mxCell id="G4VD6scRQYRvnBUST8PF-20" style="rounded=0;orthogonalLoop=1;jettySize=auto;html=1;endArrow=none;startFill=0;" parent="1" source="G4VD6scRQYRvnBUST8PF-30" target="G4VD6scRQYRvnBUST8PF-19" edge="1">
          <mxGeometry relative="1" as="geometry">
            <mxPoint x="822.4875470993993" y="286.6800000000003" as="sourcePoint" />
          </mxGeometry>
        </mxCell>
        <mxCell id="I6LmXVEZjTcFnqHunB0a-2" value="" style="endArrow=none;html=1;rounded=0;" parent="1" source="G4VD6scRQYRvnBUST8PF-32" target="I6LmXVEZjTcFnqHunB0a-1" edge="1">
          <mxGeometry relative="1" as="geometry">
            <mxPoint x="850" y="490" as="sourcePoint" />
            <mxPoint x="1010" y="490" as="targetPoint" />
          </mxGeometry>
        </mxCell>
        <mxCell id="I6LmXVEZjTcFnqHunB0a-4" value="" style="endArrow=none;html=1;rounded=0;" parent="1" source="I6LmXVEZjTcFnqHunB0a-3" target="fhtL9vKuBu3bavkkqOvB-79" edge="1">
          <mxGeometry relative="1" as="geometry">
            <mxPoint x="-63" y="180" as="sourcePoint" />
            <mxPoint x="520" y="15" as="targetPoint" />
          </mxGeometry>
        </mxCell>
        <mxCell id="I6LmXVEZjTcFnqHunB0a-6" value="" style="endArrow=none;html=1;rounded=0;" parent="1" source="G4VD6scRQYRvnBUST8PF-30" target="I6LmXVEZjTcFnqHunB0a-5" edge="1">
          <mxGeometry relative="1" as="geometry">
            <mxPoint x="720" y="340" as="sourcePoint" />
            <mxPoint x="880" y="340" as="targetPoint" />
          </mxGeometry>
        </mxCell>
      </root>
    </mxGraphModel>
  </diagram>
</mxfile>
